<?xml version="1.0" encoding="UTF-8" standalone="no"?>
<!-- Created with Inkscape (http://www.inkscape.org/) -->

<svg
   xmlns:dc="http://purl.org/dc/elements/1.1/"
   xmlns:cc="http://creativecommons.org/ns#"
   xmlns:rdf="http://www.w3.org/1999/02/22-rdf-syntax-ns#"
   xmlns:svg="http://www.w3.org/2000/svg"
   xmlns="http://www.w3.org/2000/svg"
   xmlns:sodipodi="http://sodipodi.sourceforge.net/DTD/sodipodi-0.dtd"
   xmlns:inkscape="http://www.inkscape.org/namespaces/inkscape"
   width="166.35907mm"
   height="90.061386mm"
   viewBox="0 0 589.46127 319.11515"
   id="svg2"
   version="1.1"
   inkscape:version="0.91 r13725"
   sodipodi:docname="transportTheorem.svg">
  <defs
     id="defs4">
    <marker
       inkscape:stockid="Arrow1Mend"
       orient="auto"
       refY="0"
       refX="0"
       id="Arrow1Mend"
       style="overflow:visible"
       inkscape:isstock="true">
      <path
         id="path4172"
         d="M 0,0 5,-5 -12.5,0 5,5 0,0 Z"
         style="fill:#000000;fill-opacity:1;fill-rule:evenodd;stroke:#000000;stroke-width:1pt;stroke-opacity:1"
         transform="matrix(-0.4,0,0,-0.4,-4,0)"
         inkscape:connector-curvature="0" />
    </marker>
    <marker
       inkscape:isstock="true"
       style="overflow:visible"
       id="marker9076"
       refX="0"
       refY="0"
       orient="auto"
       inkscape:stockid="Arrow2Lend">
      <path
         transform="matrix(-1.1,0,0,-1.1,-1.1,0)"
         d="M 8.7185878,4.0337352 -2.2072895,0.01601326 8.7185884,-4.0017078 c -1.7454984,2.3720609 -1.7354408,5.6174519 -6e-7,8.035443 z"
         style="fill:#000000;fill-opacity:1;fill-rule:evenodd;stroke:#000000;stroke-width:0.625;stroke-linejoin:round;stroke-opacity:1"
         id="path9078"
         inkscape:connector-curvature="0" />
    </marker>
    <marker
       inkscape:stockid="Arrow2Lend"
       orient="auto"
       refY="0"
       refX="0"
       id="Arrow2Lend"
       style="overflow:visible"
       inkscape:isstock="true">
      <path
         id="path4184"
         style="fill:#000000;fill-opacity:1;fill-rule:evenodd;stroke:#000000;stroke-width:0.625;stroke-linejoin:round;stroke-opacity:1"
         d="M 8.7185878,4.0337352 -2.2072895,0.01601326 8.7185884,-4.0017078 c -1.7454984,2.3720609 -1.7354408,5.6174519 -6e-7,8.035443 z"
         transform="matrix(-1.1,0,0,-1.1,-1.1,0)"
         inkscape:connector-curvature="0" />
    </marker>
    <marker
       inkscape:stockid="Arrow2Lend"
       orient="auto"
       refY="0"
       refX="0"
       id="Arrow2Lend-6"
       style="overflow:visible"
       inkscape:isstock="true">
      <path
         inkscape:connector-curvature="0"
         id="path4184-7"
         style="fill:#000000;fill-opacity:1;fill-rule:evenodd;stroke:#000000;stroke-width:0.625;stroke-linejoin:round;stroke-opacity:1"
         d="M 8.7185878,4.0337352 -2.2072895,0.01601326 8.7185884,-4.0017078 c -1.7454984,2.3720609 -1.7354408,5.6174519 -6e-7,8.035443 z"
         transform="matrix(-1.1,0,0,-1.1,-1.1,0)" />
    </marker>
    <marker
       inkscape:stockid="Arrow2Lend"
       orient="auto"
       refY="0"
       refX="0"
       id="Arrow2Lend-3"
       style="overflow:visible"
       inkscape:isstock="true">
      <path
         inkscape:connector-curvature="0"
         id="path4184-5"
         style="fill:#000000;fill-opacity:1;fill-rule:evenodd;stroke:#000000;stroke-width:0.625;stroke-linejoin:round;stroke-opacity:1"
         d="M 8.7185878,4.0337352 -2.2072895,0.01601326 8.7185884,-4.0017078 c -1.7454984,2.3720609 -1.7354408,5.6174519 -6e-7,8.035443 z"
         transform="matrix(-1.1,0,0,-1.1,-1.1,0)" />
    </marker>
    <marker
       inkscape:stockid="Arrow2Lend"
       orient="auto"
       refY="0"
       refX="0"
       id="Arrow2Lend-2"
       style="overflow:visible"
       inkscape:isstock="true"
       inkscape:collect="always">
      <path
         inkscape:connector-curvature="0"
         id="path4184-9"
         style="fill:#000000;fill-opacity:1;fill-rule:evenodd;stroke:#000000;stroke-width:0.625;stroke-linejoin:round;stroke-opacity:1"
         d="M 8.7185878,4.0337352 -2.2072895,0.01601326 8.7185884,-4.0017078 c -1.7454984,2.3720609 -1.7354408,5.6174519 -6e-7,8.035443 z"
         transform="matrix(-1.1,0,0,-1.1,-1.1,0)" />
    </marker>
    <marker
       inkscape:stockid="Arrow1Mend"
       orient="auto"
       refY="0"
       refX="0"
       id="Arrow1Mend-2"
       style="overflow:visible"
       inkscape:isstock="true">
      <path
         inkscape:connector-curvature="0"
         id="path4172-7"
         d="M 0,0 5,-5 -12.5,0 5,5 0,0 Z"
         style="fill:#000000;fill-opacity:1;fill-rule:evenodd;stroke:#000000;stroke-width:1pt;stroke-opacity:1"
         transform="matrix(-0.4,0,0,-0.4,-4,0)" />
    </marker>
    <marker
       inkscape:stockid="Arrow1Mend"
       orient="auto"
       refY="0"
       refX="0"
       id="Arrow1Mend-9"
       style="overflow:visible"
       inkscape:isstock="true">
      <path
         inkscape:connector-curvature="0"
         id="path4172-3"
         d="M 0,0 5,-5 -12.5,0 5,5 0,0 Z"
         style="fill:#000000;fill-opacity:1;fill-rule:evenodd;stroke:#000000;stroke-width:1pt;stroke-opacity:1"
         transform="matrix(-0.4,0,0,-0.4,-4,0)" />
    </marker>
    <marker
       inkscape:stockid="Arrow1Mend"
       orient="auto"
       refY="0"
       refX="0"
       id="Arrow1Mend-0"
       style="overflow:visible"
       inkscape:isstock="true">
      <path
         inkscape:connector-curvature="0"
         id="path4172-6"
         d="M 0,0 5,-5 -12.5,0 5,5 0,0 Z"
         style="fill:#000000;fill-opacity:1;fill-rule:evenodd;stroke:#000000;stroke-width:1pt;stroke-opacity:1"
         transform="matrix(-0.4,0,0,-0.4,-4,0)" />
    </marker>
    <marker
       inkscape:stockid="Arrow1Mend"
       orient="auto"
       refY="0"
       refX="0"
       id="Arrow1Mend-6"
       style="overflow:visible"
       inkscape:isstock="true">
      <path
         inkscape:connector-curvature="0"
         id="path4172-1"
         d="M 0,0 5,-5 -12.5,0 5,5 0,0 Z"
         style="fill:#000000;fill-opacity:1;fill-rule:evenodd;stroke:#000000;stroke-width:1pt;stroke-opacity:1"
         transform="matrix(-0.4,0,0,-0.4,-4,0)" />
    </marker>
    <marker
       inkscape:stockid="Arrow1Mend"
       orient="auto"
       refY="0"
       refX="0"
       id="Arrow1Mend-7"
       style="overflow:visible"
       inkscape:isstock="true">
      <path
         inkscape:connector-curvature="0"
         id="path4172-9"
         d="M 0,0 5,-5 -12.5,0 5,5 0,0 Z"
         style="fill:#000000;fill-opacity:1;fill-rule:evenodd;stroke:#000000;stroke-width:1pt;stroke-opacity:1"
         transform="matrix(-0.4,0,0,-0.4,-4,0)" />
    </marker>
    <marker
       inkscape:stockid="Arrow1Mend"
       orient="auto"
       refY="0"
       refX="0"
       id="Arrow1Mend-23"
       style="overflow:visible"
       inkscape:isstock="true">
      <path
         inkscape:connector-curvature="0"
         id="path4172-75"
         d="M 0,0 5,-5 -12.5,0 5,5 0,0 Z"
         style="fill:#000000;fill-opacity:1;fill-rule:evenodd;stroke:#000000;stroke-width:1pt;stroke-opacity:1"
         transform="matrix(-0.4,0,0,-0.4,-4,0)" />
    </marker>
    <marker
       inkscape:stockid="Arrow1Mend"
       orient="auto"
       refY="0"
       refX="0"
       id="Arrow1Mend-22"
       style="overflow:visible"
       inkscape:isstock="true">
      <path
         inkscape:connector-curvature="0"
         id="path4172-8"
         d="M 0,0 5,-5 -12.5,0 5,5 0,0 Z"
         style="fill:#000000;fill-opacity:1;fill-rule:evenodd;stroke:#000000;stroke-width:1pt;stroke-opacity:1"
         transform="matrix(-0.4,0,0,-0.4,-4,0)" />
    </marker>
    <marker
       inkscape:stockid="Arrow1Mend"
       orient="auto"
       refY="0"
       refX="0"
       id="Arrow1Mend-3"
       style="overflow:visible"
       inkscape:isstock="true">
      <path
         inkscape:connector-curvature="0"
         id="path4172-61"
         d="M 0,0 5,-5 -12.5,0 5,5 0,0 Z"
         style="fill:#000000;fill-opacity:1;fill-rule:evenodd;stroke:#000000;stroke-width:1pt;stroke-opacity:1"
         transform="matrix(-0.4,0,0,-0.4,-4,0)" />
    </marker>
    <marker
       inkscape:stockid="Arrow1Mend"
       orient="auto"
       refY="0"
       refX="0"
       id="Arrow1Mend-31"
       style="overflow:visible"
       inkscape:isstock="true">
      <path
         inkscape:connector-curvature="0"
         id="path4172-94"
         d="M 0,0 5,-5 -12.5,0 5,5 0,0 Z"
         style="fill:#000000;fill-opacity:1;fill-rule:evenodd;stroke:#000000;stroke-width:1pt;stroke-opacity:1"
         transform="matrix(-0.4,0,0,-0.4,-4,0)" />
    </marker>
    <marker
       inkscape:stockid="Arrow1Mend"
       orient="auto"
       refY="0"
       refX="0"
       id="Arrow1Mend-8"
       style="overflow:visible"
       inkscape:isstock="true">
      <path
         inkscape:connector-curvature="0"
         id="path4172-4"
         d="M 0,0 5,-5 -12.5,0 5,5 0,0 Z"
         style="fill:#000000;fill-opacity:1;fill-rule:evenodd;stroke:#000000;stroke-width:1pt;stroke-opacity:1"
         transform="matrix(-0.4,0,0,-0.4,-4,0)" />
    </marker>
    <marker
       inkscape:stockid="Arrow1Mend"
       orient="auto"
       refY="0"
       refX="0"
       id="Arrow1Mend-03"
       style="overflow:visible"
       inkscape:isstock="true">
      <path
         inkscape:connector-curvature="0"
         id="path4172-610"
         d="M 0,0 5,-5 -12.5,0 5,5 0,0 Z"
         style="fill:#000000;fill-opacity:1;fill-rule:evenodd;stroke:#000000;stroke-width:1pt;stroke-opacity:1"
         transform="matrix(-0.4,0,0,-0.4,-4,0)" />
    </marker>
    <marker
       inkscape:stockid="Arrow1Mend"
       orient="auto"
       refY="0"
       refX="0"
       id="Arrow1Mend-03-2"
       style="overflow:visible"
       inkscape:isstock="true">
      <path
         inkscape:connector-curvature="0"
         id="path4172-610-0"
         d="M 0,0 5,-5 -12.5,0 5,5 0,0 Z"
         style="fill:#000000;fill-opacity:1;fill-rule:evenodd;stroke:#000000;stroke-width:1pt;stroke-opacity:1"
         transform="matrix(-0.4,0,0,-0.4,-4,0)" />
    </marker>
    <marker
       inkscape:stockid="Arrow1Mend"
       orient="auto"
       refY="0"
       refX="0"
       id="Arrow1Mend-8-6"
       style="overflow:visible"
       inkscape:isstock="true">
      <path
         inkscape:connector-curvature="0"
         id="path4172-4-1"
         d="M 0,0 5,-5 -12.5,0 5,5 0,0 Z"
         style="fill:#000000;fill-opacity:1;fill-rule:evenodd;stroke:#000000;stroke-width:1pt;stroke-opacity:1"
         transform="matrix(-0.4,0,0,-0.4,-4,0)" />
    </marker>
    <marker
       inkscape:stockid="Arrow1Mend"
       orient="auto"
       refY="0"
       refX="0"
       id="Arrow1Mend-31-5"
       style="overflow:visible"
       inkscape:isstock="true">
      <path
         inkscape:connector-curvature="0"
         id="path4172-94-5"
         d="M 0,0 5,-5 -12.5,0 5,5 0,0 Z"
         style="fill:#000000;fill-opacity:1;fill-rule:evenodd;stroke:#000000;stroke-width:1pt;stroke-opacity:1"
         transform="matrix(-0.4,0,0,-0.4,-4,0)" />
    </marker>
    <marker
       inkscape:stockid="Arrow1Mend"
       orient="auto"
       refY="0"
       refX="0"
       id="Arrow1Mend-22-4"
       style="overflow:visible"
       inkscape:isstock="true">
      <path
         inkscape:connector-curvature="0"
         id="path4172-8-7"
         d="M 0,0 5,-5 -12.5,0 5,5 0,0 Z"
         style="fill:#000000;fill-opacity:1;fill-rule:evenodd;stroke:#000000;stroke-width:1pt;stroke-opacity:1"
         transform="matrix(-0.4,0,0,-0.4,-4,0)" />
    </marker>
    <marker
       inkscape:stockid="Arrow1Mend"
       orient="auto"
       refY="0"
       refX="0"
       id="Arrow1Mend-23-6"
       style="overflow:visible"
       inkscape:isstock="true">
      <path
         inkscape:connector-curvature="0"
         id="path4172-75-5"
         d="M 0,0 5,-5 -12.5,0 5,5 0,0 Z"
         style="fill:#000000;fill-opacity:1;fill-rule:evenodd;stroke:#000000;stroke-width:1pt;stroke-opacity:1"
         transform="matrix(-0.4,0,0,-0.4,-4,0)" />
    </marker>
    <marker
       inkscape:stockid="Arrow1Mend"
       orient="auto"
       refY="0"
       refX="0"
       id="Arrow1Mend-7-6"
       style="overflow:visible"
       inkscape:isstock="true">
      <path
         inkscape:connector-curvature="0"
         id="path4172-9-9"
         d="M 0,0 5,-5 -12.5,0 5,5 0,0 Z"
         style="fill:#000000;fill-opacity:1;fill-rule:evenodd;stroke:#000000;stroke-width:1pt;stroke-opacity:1"
         transform="matrix(-0.4,0,0,-0.4,-4,0)" />
    </marker>
    <marker
       inkscape:stockid="Arrow1Mend"
       orient="auto"
       refY="0"
       refX="0"
       id="Arrow1Mend-6-3"
       style="overflow:visible"
       inkscape:isstock="true">
      <path
         inkscape:connector-curvature="0"
         id="path4172-1-7"
         d="M 0,0 5,-5 -12.5,0 5,5 0,0 Z"
         style="fill:#000000;fill-opacity:1;fill-rule:evenodd;stroke:#000000;stroke-width:1pt;stroke-opacity:1"
         transform="matrix(-0.4,0,0,-0.4,-4,0)" />
    </marker>
    <marker
       inkscape:stockid="Arrow1Mend"
       orient="auto"
       refY="0"
       refX="0"
       id="Arrow1Mend-0-4"
       style="overflow:visible"
       inkscape:isstock="true">
      <path
         inkscape:connector-curvature="0"
         id="path4172-6-5"
         d="M 0,0 5,-5 -12.5,0 5,5 0,0 Z"
         style="fill:#000000;fill-opacity:1;fill-rule:evenodd;stroke:#000000;stroke-width:1pt;stroke-opacity:1"
         transform="matrix(-0.4,0,0,-0.4,-4,0)" />
    </marker>
    <marker
       inkscape:stockid="Arrow1Mend"
       orient="auto"
       refY="0"
       refX="0"
       id="Arrow1Mend-9-2"
       style="overflow:visible"
       inkscape:isstock="true">
      <path
         inkscape:connector-curvature="0"
         id="path4172-3-5"
         d="M 0,0 5,-5 -12.5,0 5,5 0,0 Z"
         style="fill:#000000;fill-opacity:1;fill-rule:evenodd;stroke:#000000;stroke-width:1pt;stroke-opacity:1"
         transform="matrix(-0.4,0,0,-0.4,-4,0)" />
    </marker>
    <marker
       inkscape:stockid="Arrow1Mend"
       orient="auto"
       refY="0"
       refX="0"
       id="Arrow1Mend-2-4"
       style="overflow:visible"
       inkscape:isstock="true">
      <path
         inkscape:connector-curvature="0"
         id="path4172-7-7"
         d="M 0,0 5,-5 -12.5,0 5,5 0,0 Z"
         style="fill:#000000;fill-opacity:1;fill-rule:evenodd;stroke:#000000;stroke-width:1pt;stroke-opacity:1"
         transform="matrix(-0.4,0,0,-0.4,-4,0)" />
    </marker>
    <marker
       inkscape:stockid="Arrow1Mend"
       orient="auto"
       refY="0"
       refX="0"
       id="Arrow1Mend-4"
       style="overflow:visible"
       inkscape:isstock="true">
      <path
         inkscape:connector-curvature="0"
         id="path4172-43"
         d="M 0,0 5,-5 -12.5,0 5,5 0,0 Z"
         style="fill:#000000;fill-opacity:1;fill-rule:evenodd;stroke:#000000;stroke-width:1pt;stroke-opacity:1"
         transform="matrix(-0.4,0,0,-0.4,-4,0)" />
    </marker>
    <marker
       inkscape:stockid="Arrow1Mend"
       orient="auto"
       refY="0"
       refX="0"
       id="Arrow1Mend-26"
       style="overflow:visible"
       inkscape:isstock="true">
      <path
         inkscape:connector-curvature="0"
         id="path4172-64"
         d="M 0,0 5,-5 -12.5,0 5,5 0,0 Z"
         style="fill:#000000;fill-opacity:1;fill-rule:evenodd;stroke:#000000;stroke-width:1pt;stroke-opacity:1"
         transform="matrix(-0.4,0,0,-0.4,-4,0)" />
    </marker>
    <marker
       inkscape:stockid="Arrow1Mend"
       orient="auto"
       refY="0"
       refX="0"
       id="Arrow1Mend-2-9"
       style="overflow:visible"
       inkscape:isstock="true">
      <path
         inkscape:connector-curvature="0"
         id="path4172-7-5"
         d="M 0,0 5,-5 -12.5,0 5,5 0,0 Z"
         style="fill:#000000;fill-opacity:1;fill-rule:evenodd;stroke:#000000;stroke-width:1pt;stroke-opacity:1"
         transform="matrix(-0.4,0,0,-0.4,-4,0)" />
    </marker>
    <marker
       inkscape:stockid="Arrow1Mend"
       orient="auto"
       refY="0"
       refX="0"
       id="Arrow1Mend-9-0"
       style="overflow:visible"
       inkscape:isstock="true">
      <path
         inkscape:connector-curvature="0"
         id="path4172-3-4"
         d="M 0,0 5,-5 -12.5,0 5,5 0,0 Z"
         style="fill:#000000;fill-opacity:1;fill-rule:evenodd;stroke:#000000;stroke-width:1pt;stroke-opacity:1"
         transform="matrix(-0.4,0,0,-0.4,-4,0)" />
    </marker>
    <marker
       inkscape:stockid="Arrow1Mend"
       orient="auto"
       refY="0"
       refX="0"
       id="Arrow1Mend-0-8"
       style="overflow:visible"
       inkscape:isstock="true">
      <path
         inkscape:connector-curvature="0"
         id="path4172-6-7"
         d="M 0,0 5,-5 -12.5,0 5,5 0,0 Z"
         style="fill:#000000;fill-opacity:1;fill-rule:evenodd;stroke:#000000;stroke-width:1pt;stroke-opacity:1"
         transform="matrix(-0.4,0,0,-0.4,-4,0)" />
    </marker>
    <marker
       inkscape:stockid="Arrow1Mend"
       orient="auto"
       refY="0"
       refX="0"
       id="Arrow1Mend-6-1"
       style="overflow:visible"
       inkscape:isstock="true">
      <path
         inkscape:connector-curvature="0"
         id="path4172-1-72"
         d="M 0,0 5,-5 -12.5,0 5,5 0,0 Z"
         style="fill:#000000;fill-opacity:1;fill-rule:evenodd;stroke:#000000;stroke-width:1pt;stroke-opacity:1"
         transform="matrix(-0.4,0,0,-0.4,-4,0)" />
    </marker>
    <marker
       inkscape:stockid="Arrow1Mend"
       orient="auto"
       refY="0"
       refX="0"
       id="Arrow1Mend-7-7"
       style="overflow:visible"
       inkscape:isstock="true">
      <path
         inkscape:connector-curvature="0"
         id="path4172-9-2"
         d="M 0,0 5,-5 -12.5,0 5,5 0,0 Z"
         style="fill:#000000;fill-opacity:1;fill-rule:evenodd;stroke:#000000;stroke-width:1pt;stroke-opacity:1"
         transform="matrix(-0.4,0,0,-0.4,-4,0)" />
    </marker>
    <marker
       inkscape:stockid="Arrow1Mend"
       orient="auto"
       refY="0"
       refX="0"
       id="Arrow1Mend-23-2"
       style="overflow:visible"
       inkscape:isstock="true">
      <path
         inkscape:connector-curvature="0"
         id="path4172-75-6"
         d="M 0,0 5,-5 -12.5,0 5,5 0,0 Z"
         style="fill:#000000;fill-opacity:1;fill-rule:evenodd;stroke:#000000;stroke-width:1pt;stroke-opacity:1"
         transform="matrix(-0.4,0,0,-0.4,-4,0)" />
    </marker>
    <marker
       inkscape:stockid="Arrow1Mend"
       orient="auto"
       refY="0"
       refX="0"
       id="Arrow1Mend-22-1"
       style="overflow:visible"
       inkscape:isstock="true">
      <path
         inkscape:connector-curvature="0"
         id="path4172-8-0"
         d="M 0,0 5,-5 -12.5,0 5,5 0,0 Z"
         style="fill:#000000;fill-opacity:1;fill-rule:evenodd;stroke:#000000;stroke-width:1pt;stroke-opacity:1"
         transform="matrix(-0.4,0,0,-0.4,-4,0)" />
    </marker>
    <marker
       inkscape:stockid="Arrow1Mend"
       orient="auto"
       refY="0"
       refX="0"
       id="Arrow1Mend-31-6"
       style="overflow:visible"
       inkscape:isstock="true">
      <path
         inkscape:connector-curvature="0"
         id="path4172-94-1"
         d="M 0,0 5,-5 -12.5,0 5,5 0,0 Z"
         style="fill:#000000;fill-opacity:1;fill-rule:evenodd;stroke:#000000;stroke-width:1pt;stroke-opacity:1"
         transform="matrix(-0.4,0,0,-0.4,-4,0)" />
    </marker>
    <marker
       inkscape:stockid="Arrow1Mend"
       orient="auto"
       refY="0"
       refX="0"
       id="Arrow1Mend-8-5"
       style="overflow:visible"
       inkscape:isstock="true">
      <path
         inkscape:connector-curvature="0"
         id="path4172-4-9"
         d="M 0,0 5,-5 -12.5,0 5,5 0,0 Z"
         style="fill:#000000;fill-opacity:1;fill-rule:evenodd;stroke:#000000;stroke-width:1pt;stroke-opacity:1"
         transform="matrix(-0.4,0,0,-0.4,-4,0)" />
    </marker>
    <marker
       inkscape:stockid="Arrow1Mend"
       orient="auto"
       refY="0"
       refX="0"
       id="Arrow1Mend-03-4"
       style="overflow:visible"
       inkscape:isstock="true">
      <path
         inkscape:connector-curvature="0"
         id="path4172-610-9"
         d="M 0,0 5,-5 -12.5,0 5,5 0,0 Z"
         style="fill:#000000;fill-opacity:1;fill-rule:evenodd;stroke:#000000;stroke-width:1pt;stroke-opacity:1"
         transform="matrix(-0.4,0,0,-0.4,-4,0)" />
    </marker>
  </defs>
  <sodipodi:namedview
     id="base"
     pagecolor="#ffffff"
     bordercolor="#666666"
     borderopacity="1.0"
     inkscape:pageopacity="0.0"
     inkscape:pageshadow="2"
     inkscape:zoom="1.4"
     inkscape:cx="43.518336"
     inkscape:cy="209.14349"
     inkscape:document-units="px"
     inkscape:current-layer="layer1"
     showgrid="true"
     inkscape:window-width="1920"
     inkscape:window-height="1020"
     inkscape:window-x="0"
     inkscape:window-y="27"
     inkscape:window-maximized="1"
     fit-margin-top="0"
     fit-margin-left="0"
     fit-margin-right="0"
     fit-margin-bottom="0">
    <inkscape:grid
       type="xygrid"
       id="grid4136"
       originx="25.419985"
       originy="-435.64986" />
  </sodipodi:namedview>
  <metadata
     id="metadata7">
    <rdf:RDF>
      <cc:Work
         rdf:about="">
        <dc:format>image/svg+xml</dc:format>
        <dc:type
           rdf:resource="http://purl.org/dc/dcmitype/StillImage" />
        <dc:title />
      </cc:Work>
    </rdf:RDF>
  </metadata>
  <g
     inkscape:label="Layer 1"
     inkscape:groupmode="layer"
     id="layer1"
     transform="translate(25.419983,-297.5972)">
    <path
       style="fill:none;fill-rule:evenodd;stroke:#000000;stroke-width:1;stroke-linecap:butt;stroke-linejoin:miter;stroke-miterlimit:4;stroke-dasharray:6, 6;stroke-dashoffset:0;stroke-opacity:1;marker-end:url(#Arrow2Lend)"
       d="M 217.14287,473.07648 C 320,372.3622 529.28572,370.93363 529.28572,370.93363"
       id="path4157"
       inkscape:connector-curvature="0"
       sodipodi:nodetypes="cc" />
    <path
       style="fill:none;fill-rule:evenodd;stroke:#000000;stroke-width:1;stroke-linecap:butt;stroke-linejoin:miter;stroke-miterlimit:4;stroke-dasharray:6, 6;stroke-dashoffset:0;stroke-opacity:1;marker-end:url(#Arrow2Lend-3)"
       d="m 105,447.3622 c 114.28571,-100 294.28571,-129.28571 294.28571,-129.28571"
       id="path4157-6"
       inkscape:connector-curvature="0"
       sodipodi:nodetypes="cc" />
    <path
       style="fill:none;fill-rule:evenodd;stroke:#000000;stroke-width:1;stroke-linecap:butt;stroke-linejoin:miter;stroke-miterlimit:4;stroke-dasharray:6, 6;stroke-dashoffset:0;stroke-opacity:1;marker-end:url(#Arrow2Lend-2)"
       d="M 156.42858,571.64792 C 262.85715,485.93363 441.42857,433.79078 441.42857,433.79078"
       id="path4157-1"
       inkscape:connector-curvature="0"
       sodipodi:nodetypes="cc" />
    <text
       xml:space="preserve"
       style="font-style:normal;font-weight:normal;font-size:15px;line-height:125%;font-family:Sans;letter-spacing:0px;word-spacing:0px;fill:#000000;fill-opacity:1;stroke:none;stroke-width:1px;stroke-linecap:butt;stroke-linejoin:miter;stroke-opacity:1"
       x="310.71429"
       y="372.36221"
       id="text9041"
       sodipodi:linespacing="125%"><tspan
         sodipodi:role="line"
         id="tspan9043"
         x="310.71429"
         y="372.36221">t+dt</tspan></text>
    <text
       xml:space="preserve"
       style="font-style:normal;font-variant:normal;font-weight:bold;font-stretch:normal;font-size:15px;line-height:125%;font-family:Sans;-inkscape-font-specification:'Sans Bold';letter-spacing:0px;word-spacing:0px;fill:#000000;fill-opacity:1;stroke:none;stroke-width:1px;stroke-linecap:butt;stroke-linejoin:miter;stroke-opacity:1"
       x="241.42857"
       y="357.36221"
       id="text9064"
       sodipodi:linespacing="125%"><tspan
         sodipodi:role="line"
         id="tspan9066"
         x="241.42857"
         y="357.36221">V</tspan></text>
    <path
       style="fill:none;fill-rule:evenodd;stroke:#000000;stroke-width:1px;stroke-linecap:butt;stroke-linejoin:miter;stroke-opacity:1"
       d="m 270,542.3622 c 5.7784,55.60633 -46.97332,27.72003 -102.85714,29.28571 C 118.62491,573.00723 80,652.3622 15.714286,562.3622 -41.531036,482.21875 39.424796,464.90337 80,452.3622 c 66.95409,-20.69447 182.75662,20.29602 190,90 z"
       id="path4140"
       inkscape:connector-curvature="0"
       sodipodi:nodetypes="sssas" />
    <path
       style="fill:#0000c8;fill-opacity:0.15686275;stroke-width:1;stroke-miterlimit:4;stroke-dasharray:6, 6;stroke-dashoffset:0"
       d="M 66.711488,603.3015 C 60.866134,601.99028 50.620131,596.90768 44.568631,592.31738 34.404692,584.60763 18.909488,566.6571 10.263606,552.57649 c -4.5763725,-7.45304 -9.69256047,-18.54764 -11.5285659,-25 -2.1467451,-7.54441 -2.2989962,-19.51292 -0.3225678,-25.35714 4.4221297,-13.07607 14.6716687,-22.9736 32.9418727,-31.81053 15.90493,-7.69289 47.78265,-17.9023 66.071429,-21.16057 7.054846,-1.25687 35.957826,-1.2739 44.642856,-0.0263 30.70652,4.41094 60.53094,15.13266 81.91631,29.44848 23.46138,15.70555 37.92168,33.90664 43.57866,54.85219 2.07946,7.69942 2.24035,23.06629 0.29986,28.64047 -3.65083,10.48727 -13.89594,15.07816 -31.48836,14.1101 -4.33285,-0.23842 -16.55647,-1.46517 -27.16361,-2.72611 -15.94577,-1.89558 -22.02129,-2.30184 -35.08161,-2.34589 -13.56385,-0.0457 -15.59922,-0.1911 -14.40408,-1.02878 1.04526,-0.73264 1.18758,-1.17725 0.57161,-1.78572 -0.61361,-0.60613 -1.41022,-0.16887 -3.16291,1.73615 -1.68009,1.82611 -3.94008,3.11262 -7.99002,4.54836 -6.7011,2.37561 -12.11303,5.03105 -25.92415,12.72004 -14.0176,7.80396 -25.108206,13.02766 -31.508842,14.84075 -7.017486,1.98782 -18.6817,2.48683 -25,1.06952 z M 168.11595,563.05458 c 1.33206,-1.11205 2.10822,-2.2158 1.72481,-2.45276 -0.77642,-0.47986 -5.27213,2.77089 -5.27213,3.81216 0,1.13472 1.03475,0.73818 3.54732,-1.3594 z m 9.3368,-7.19413 c 1.36017,-1.14025 2.2407,-2.31007 1.95675,-2.5996 -0.59103,-0.60265 -5.55515,2.96718 -5.55515,3.99485 0,1.15738 1.02976,0.7581 3.5984,-1.39525 z m 9.74041,-6.90195 c 3.29115,-2.51027 2.26642,-3.58852 -1.21861,-1.28224 -1.54608,1.02315 -2.63665,2.14248 -2.42348,2.48739 0.58111,0.94026 1.01951,0.7952 3.64209,-1.20515 z m 9.97419,-6.80016 c 1.3256,-0.81927 2.22534,-1.78866 1.99942,-2.1542 -0.42772,-0.69206 -4.14151,1.18084 -5.4548,2.75092 -1.19395,1.42739 0.71318,1.09805 3.45538,-0.59672 z m 10.19602,-6.18899 c 1.91657,-1.09083 3.0402,-3.03572 1.75385,-3.03572 -0.91847,0 -5.26287,2.99624 -5.26287,3.62969 0,0.97926 1.06017,0.79981 3.50902,-0.59397 z m 10.30178,-6.19257 c 1.65,-1.01413 2.42333,-1.879 1.94465,-2.17485 -0.92349,-0.57074 -5.14393,1.71142 -5.57907,3.01682 -0.42866,1.28599 0.53572,1.06258 3.63442,-0.84197 z m 12.61777,-7.57195 c 0,-0.93693 -0.25195,-0.89713 -3.19005,0.50395 -1.38833,0.66205 -2.52424,1.63287 -2.52424,2.15738 0,0.71135 0.72593,0.58331 2.85714,-0.50396 1.57143,-0.80168 2.85715,-1.7725 2.85715,-2.15737 z m 10.70702,-5.5212 c 0.009,-1.1465 -0.16169,-1.1298 -3.18279,0.31087 -3.66102,1.74582 -3.37076,3.33145 0.32565,1.77895 1.56743,-0.65833 2.85315,-1.59875 2.85714,-2.08982 z m 8.61416,-3.4112 c 1.8139,-0.938 2.88832,-2.48165 1.7273,-2.48165 -1.19583,0 -5.3342,2.18834 -5.3342,2.82069 0,1.04456 1.13821,0.93757 3.6069,-0.33904 z"
       id="path7840"
       inkscape:connector-curvature="0" />
    <text
       xml:space="preserve"
       style="font-style:normal;font-weight:normal;font-size:15px;line-height:125%;font-family:Sans;letter-spacing:0px;word-spacing:0px;fill:#000000;fill-opacity:1;stroke:none;stroke-width:1px;stroke-linecap:butt;stroke-linejoin:miter;stroke-opacity:1"
       x="20.714285"
       y="503.79077"
       id="text9037"
       sodipodi:linespacing="125%"><tspan
         sodipodi:role="line"
         id="tspan9039"
         x="20.714285"
         y="503.79077">t</tspan></text>
    <path
       style="fill:none;fill-rule:evenodd;stroke:#000000;stroke-width:1px;stroke-linecap:butt;stroke-linejoin:miter;stroke-opacity:1;marker-end:url(#Arrow1Mend)"
       d="M 69.285714,455.21934 63.571428,440.93363"
       id="path9884"
       inkscape:connector-curvature="0"
       sodipodi:nodetypes="cc" />
    <path
       style="fill:none;fill-rule:evenodd;stroke:#000000;stroke-width:1px;stroke-linecap:butt;stroke-linejoin:miter;stroke-opacity:1;marker-end:url(#Arrow1Mend-2)"
       d="m 97.142857,600.93362 3.571423,13.92857"
       id="path9884-0"
       inkscape:connector-curvature="0"
       sodipodi:nodetypes="cc" />
    <path
       style="fill:none;fill-rule:evenodd;stroke:#000000;stroke-width:1px;stroke-linecap:butt;stroke-linejoin:miter;stroke-opacity:1;marker-end:url(#Arrow1Mend-9)"
       d="M 17.142857,566.64791 5.3571424,577.71934"
       id="path9884-6"
       inkscape:connector-curvature="0"
       sodipodi:nodetypes="cc" />
    <path
       style="fill:none;fill-rule:evenodd;stroke:#000000;stroke-width:1px;stroke-linecap:butt;stroke-linejoin:miter;stroke-opacity:1;marker-end:url(#Arrow1Mend-0)"
       d="M -5.7142861,512.3622 -23.571429,507.71935"
       id="path9884-2"
       inkscape:connector-curvature="0"
       sodipodi:nodetypes="cc" />
    <path
       style="fill:none;fill-rule:evenodd;stroke:#000000;stroke-width:1px;stroke-linecap:butt;stroke-linejoin:miter;stroke-opacity:1;marker-end:url(#Arrow1Mend-6)"
       d="M 17.142857,478.07648 5.714285,462.00506"
       id="path9884-8"
       inkscape:connector-curvature="0"
       sodipodi:nodetypes="cc" />
    <path
       style="fill:none;fill-rule:evenodd;stroke:#000000;stroke-width:1px;stroke-linecap:butt;stroke-linejoin:miter;stroke-opacity:1;marker-end:url(#Arrow1Mend-7)"
       d="m 238.57142,488.79077 9.18547,-9.48749"
       id="path9884-20"
       inkscape:connector-curvature="0"
       sodipodi:nodetypes="cc" />
    <path
       style="fill:none;fill-rule:evenodd;stroke:#000000;stroke-width:1px;stroke-linecap:butt;stroke-linejoin:miter;stroke-opacity:1;marker-end:url(#Arrow1Mend-23)"
       d="m 235,575.93363 -1.42113,17.36822"
       id="path9884-9"
       inkscape:connector-curvature="0"
       sodipodi:nodetypes="cc" />
    <path
       style="fill:none;fill-rule:evenodd;stroke:#000000;stroke-width:1px;stroke-linecap:butt;stroke-linejoin:miter;stroke-opacity:1;marker-end:url(#Arrow1Mend-22)"
       d="m 155,574.50505 4.28264,12.59537"
       id="path9884-97"
       inkscape:connector-curvature="0"
       sodipodi:nodetypes="cc" />
    <path
       style="fill:none;fill-rule:evenodd;stroke:#000000;stroke-width:1px;stroke-linecap:butt;stroke-linejoin:miter;stroke-opacity:1;marker-end:url(#Arrow1Mend-31)"
       d="m 49.28571,596.29077 -8.21428,11.78571"
       id="path9884-7"
       inkscape:connector-curvature="0"
       sodipodi:nodetypes="cc" />
    <path
       style="fill:none;fill-rule:evenodd;stroke:#000000;stroke-width:1px;stroke-linecap:butt;stroke-linejoin:miter;stroke-opacity:1;marker-end:url(#Arrow1Mend-8)"
       d="m 269.32161,537.61474 14.81001,-0.27356"
       id="path9884-5"
       inkscape:connector-curvature="0"
       sodipodi:nodetypes="cc" />
    <path
       style="fill:none;fill-rule:evenodd;stroke:#000000;stroke-width:1px;stroke-linecap:butt;stroke-linejoin:miter;stroke-opacity:1;marker-end:url(#Arrow1Mend-03)"
       d="m 162.85714,451.64791 4.89232,-13.27556"
       id="path9884-63"
       inkscape:connector-curvature="0"
       sodipodi:nodetypes="cc" />
    <path
       style="fill:none;fill-rule:evenodd;stroke:#000000;stroke-width:1px;stroke-linecap:butt;stroke-linejoin:miter;stroke-opacity:1"
       d="m 547.85715,408.79077 c 5.7784,55.60633 -34.09941,58.18074 -83.57143,32.14285 C 410,412.3622 377.14286,521.64791 312.85715,431.64791 c -57.24533,-80.14345 23.04674,-123.74225 65,-117.14286 63.57142,10.00001 162.75662,24.58174 170,94.28572 z"
       id="path4140-9"
       inkscape:connector-curvature="0"
       sodipodi:nodetypes="sssss" />
    <path
       style="fill:none;fill-rule:evenodd;stroke:#000000;stroke-width:1px;stroke-linecap:butt;stroke-linejoin:miter;stroke-opacity:1;marker-end:url(#Arrow1Mend-26)"
       d="m 364.28571,314.50505 -0.71428,-15"
       id="path9884-1"
       inkscape:connector-curvature="0"
       sodipodi:nodetypes="cc" />
    <path
       style="fill:none;fill-rule:evenodd;stroke:#000000;stroke-width:1px;stroke-linecap:butt;stroke-linejoin:miter;stroke-opacity:1;marker-end:url(#Arrow1Mend-2-9)"
       d="m 390.71429,459.50504 3.57142,13.92857"
       id="path9884-0-1"
       inkscape:connector-curvature="0"
       sodipodi:nodetypes="cc" />
    <path
       style="fill:none;fill-rule:evenodd;stroke:#000000;stroke-width:1px;stroke-linecap:butt;stroke-linejoin:miter;stroke-opacity:1;marker-end:url(#Arrow1Mend-9-0)"
       d="M 314.28572,435.93362 302.5,447.00505"
       id="path9884-6-5"
       inkscape:connector-curvature="0"
       sodipodi:nodetypes="cc" />
    <path
       style="fill:none;fill-rule:evenodd;stroke:#000000;stroke-width:1px;stroke-linecap:butt;stroke-linejoin:miter;stroke-opacity:1;marker-end:url(#Arrow1Mend-0-8)"
       d="m 293.57143,382.3622 -19.28571,1.78572"
       id="path9884-2-9"
       inkscape:connector-curvature="0"
       sodipodi:nodetypes="cc" />
    <path
       style="fill:none;fill-rule:evenodd;stroke:#000000;stroke-width:1px;stroke-linecap:butt;stroke-linejoin:miter;stroke-opacity:1;marker-end:url(#Arrow1Mend-6-1)"
       d="m 307.85714,339.50505 -15,-11.78571"
       id="path9884-8-7"
       inkscape:connector-curvature="0"
       sodipodi:nodetypes="cc" />
    <path
       style="fill:none;fill-rule:evenodd;stroke:#000000;stroke-width:1px;stroke-linecap:butt;stroke-linejoin:miter;stroke-opacity:1;marker-end:url(#Arrow1Mend-7-7)"
       d="m 527.85714,368.07648 9.18547,-9.48749"
       id="path9884-20-7"
       inkscape:connector-curvature="0"
       sodipodi:nodetypes="cc" />
    <path
       style="fill:none;fill-rule:evenodd;stroke:#000000;stroke-width:1px;stroke-linecap:butt;stroke-linejoin:miter;stroke-opacity:1;marker-end:url(#Arrow1Mend-23-2)"
       d="m 532.14286,453.79077 9.29316,13.79679"
       id="path9884-9-6"
       inkscape:connector-curvature="0"
       sodipodi:nodetypes="cc" />
    <path
       style="fill:none;fill-rule:evenodd;stroke:#000000;stroke-width:1px;stroke-linecap:butt;stroke-linejoin:miter;stroke-opacity:1;marker-end:url(#Arrow1Mend-22-1)"
       d="m 448.57143,435.21933 -0.003,16.1668"
       id="path9884-97-7"
       inkscape:connector-curvature="0"
       sodipodi:nodetypes="cc" />
    <path
       style="fill:none;fill-rule:evenodd;stroke:#000000;stroke-width:1px;stroke-linecap:butt;stroke-linejoin:miter;stroke-opacity:1;marker-end:url(#Arrow1Mend-31-6)"
       d="m 346.42857,465.57648 -8.21428,11.78571"
       id="path9884-7-3"
       inkscape:connector-curvature="0"
       sodipodi:nodetypes="cc" />
    <path
       style="fill:none;fill-rule:evenodd;stroke:#000000;stroke-width:1px;stroke-linecap:butt;stroke-linejoin:miter;stroke-opacity:1;marker-end:url(#Arrow1Mend-8-5)"
       d="m 547.32161,409.61474 14.81001,-0.27356"
       id="path9884-5-6"
       inkscape:connector-curvature="0"
       sodipodi:nodetypes="cc" />
    <path
       style="fill:none;fill-rule:evenodd;stroke:#000000;stroke-width:1px;stroke-linecap:butt;stroke-linejoin:miter;stroke-opacity:1;marker-end:url(#Arrow1Mend-03-4)"
       d="m 457.14286,330.21933 4.89232,-13.27556"
       id="path9884-63-5"
       inkscape:connector-curvature="0"
       sodipodi:nodetypes="cc" />
    <path
       style="fill:#0000c8;fill-opacity:0.15686275;stroke-width:1;stroke-miterlimit:4;stroke-dasharray:6, 6;stroke-dashoffset:0"
       d="m 361.32689,466.96267 c -15.41096,-2.18056 -27.14662,-9.93256 -40.93049,-27.03666 -22.85597,-28.36149 -31.01796,-54.53219 -24.05894,-77.14286 2.74836,-8.92973 10.01531,-20.49632 13.44723,-21.40353 1.05887,-0.2799 1.52982,-0.81274 1.28417,-1.4529 -0.8246,-2.14886 13.29674,-12.52332 23.30149,-17.11879 12.36218,-5.67831 26.963,-8.71331 38.02797,-7.90468 9.05521,0.66175 16.25771,2.01018 16.62515,3.11251 0.17109,0.51326 -0.36565,1.11017 -1.19275,1.32646 -1.95067,0.51011 -1.94513,1.65521 0.008,1.65521 1.22747,0 1.44763,0.33589 1.17048,1.78572 -0.18775,0.98214 -0.0494,1.78571 0.30752,1.78571 0.35688,0 3.00301,-1.29202 5.88027,-2.87115 l 5.2314,-2.87116 13.48496,2.54424 c 43.28004,8.16576 70.08981,16.74357 91.24441,29.19371 10.38253,6.11044 23.58707,16.82451 22.30967,18.10191 -0.16942,0.16941 -2.27089,-0.40768 -4.66997,-1.28242 -2.39906,-0.87474 -4.54099,-1.41138 -4.75985,-1.19253 -0.21885,0.21885 -0.004,1.13329 0.47668,2.03208 0.64597,1.207 0.6611,1.70535 0.0579,1.90642 -1.09526,0.36509 -1.04191,2.1012 0.0761,2.47751 0.6934,0.23337 0.67067,0.56966 -0.10178,1.50535 -1.80514,2.18663 -0.19059,2.11721 6.11578,-0.26297 l 6.22773,-2.3505 2.05541,2.42761 c 5.6045,6.6194 10.86311,17.94627 13.06513,28.1419 1.72871,8.00407 1.74789,24.7454 0.0355,31.02043 -3.35645,12.3 -9.66239,18.90816 -20.81563,21.81321 -12.65801,3.29699 -31.68335,-0.86902 -55.20929,-12.08928 -12.62131,-6.0195 -17.88225,-7.67826 -23.98103,-7.56116 -3.69912,0.071 -4.10473,-0.0523 -3.31241,-1.00696 0.73229,-0.88237 0.71899,-1.14572 -0.0704,-1.39392 -1.51252,-0.47555 -13.47325,-1.11351 -13.47325,-0.71862 0,0.19321 0.7155,1.31905 1.58999,2.50187 1.33933,1.81154 1.42676,2.25148 0.55458,2.79052 -0.6377,0.39412 -1.20999,0.3575 -1.48985,-0.0953 -0.69641,-1.12681 -6.5257,0.80062 -6.06358,2.00491 0.236,0.61499 -1.20289,1.73559 -4.07751,3.17556 -2.44321,1.22386 -9.51346,5.26587 -15.71167,8.98223 -12.78445,7.66539 -22.4714,12.38067 -28.73053,13.98507 -4.67346,1.19794 -11.10913,1.88422 -13.92857,1.48528 z m 0.44437,-4.53666 c 0.14845,0 0.26991,-0.32143 0.26991,-0.71429 0,-0.98466 -1.04017,-0.89574 -4.00292,0.34217 -1.39065,0.58106 -2.32742,1.38176 -2.0817,1.77934 0.28939,0.46823 1.34467,0.3477 2.99578,-0.34217 1.40196,-0.58578 2.67048,-1.06505 2.81893,-1.06505 z m 9.7342,-3.71437 c 1.72083,-0.62296 2.76146,-1.99992 1.51144,-1.99992 -1.87345,0 -5.97573,1.84631 -5.97573,2.68949 0,0.70231 0.40162,0.87201 1.25,0.52816 0.6875,-0.27864 2.13393,-0.82662 3.21429,-1.21773 z m 13.39286,-5.63849 c 0,-0.83313 -0.34082,-0.81638 -3.66713,0.18021 -1.51879,0.45504 -2.76144,1.2391 -2.76144,1.74235 0,0.71713 0.69513,0.67815 3.21428,-0.1802 1.76786,-0.60238 3.21429,-1.38643 3.21429,-1.74236 z m 9.93774,-2.91192 c 1.18378,-0.44334 1.4928,-0.87611 0.98686,-1.38205 -0.89188,-0.89188 -5.9246,1.00238 -5.9246,2.22994 0,0.78749 1.0545,0.60641 4.93774,-0.84789 z m 9.95567,-3.51939 c 1.93627,-0.67498 3.14787,-2.07298 1.7966,-2.07298 -1.35723,0 -5.97573,1.74355 -5.97573,2.25592 0,0.81985 1.48958,0.75465 4.17913,-0.18294 z m 11.95866,-3.93917 c 0.94565,-0.23734 1.71936,-0.90049 1.71936,-1.47366 0,-0.75288 -0.44608,-0.90317 -1.60715,-0.54148 -3.83453,1.19453 -4.87827,1.78292 -4.43501,2.50012 0.25981,0.42038 0.95186,0.58032 1.53791,0.35543 0.58604,-0.22488 1.83925,-0.60307 2.78489,-0.84041 z M 310.88251,414.91642 c 2.38336,-0.99583 3.52192,-2.49041 1.89718,-2.49041 -1.39033,0 -5.66628,2.39615 -5.30863,2.97485 0.47458,0.76788 0.38315,0.78087 3.41145,-0.48444 z m 12.05152,-4.77621 c 1.97332,-0.71437 2.69463,-1.99992 1.12214,-1.99992 -1.91625,0 -5.58643,1.78693 -5.58643,2.71992 0,0.67333 0.41198,0.83737 1.25001,0.49773 0.6875,-0.27864 2.13392,-0.82662 3.21428,-1.21773 z m 10.5679,-3.88185 c 1.80734,-0.72315 2.66435,-1.42153 2.25131,-1.83458 -0.80374,-0.80373 -5.85492,1.13868 -5.85492,2.25149 0,0.97894 0.16185,0.96021 3.60361,-0.41691 z m 12.07121,-4.11571 c 3.38742,-1.22382 1.57729,-2.16359 -2.06531,-1.07224 -1.56665,0.46938 -2.67929,1.12712 -2.47254,1.46165 0.48775,0.7892 1.52104,0.70052 4.53785,-0.38941 z m 11.01796,-3.34927 c 1.83705,-0.51009 2.52537,-1.00637 2.05214,-1.47959 -0.85863,-0.85863 -6.75642,0.71317 -6.17938,1.64684 0.47863,0.77444 0.77967,0.76224 4.12724,-0.16725 z m 13.86558,-4.82818 c 0.34309,-1.02926 -0.0686,-1.02897 -3.51121,0.002 -1.51879,0.45504 -2.76144,1.2247 -2.76144,1.71036 0,1.13644 5.85591,-0.46257 6.27265,-1.7128 l 0,3e-4 z m 8.90592,-1.57675 c 1.47322,-0.40914 2.67857,-1.0502 2.67857,-1.42459 0,-0.8567 -0.43902,-0.84838 -3.75,0.0711 -1.47321,0.40913 -2.67857,1.0502 -2.67857,1.42458 0,0.85671 0.43902,0.84838 3.75,-0.0711 z m 13.70238,-3.57755 c 1.22199,-1.18557 -0.13256,-1.48761 -3.09456,-0.69002 -3.75677,1.01159 -3.96227,2.51109 -0.25067,1.82903 1.47321,-0.27071 2.97857,-0.78327 3.34523,-1.13901 z m 12.44058,-2.4904 c 0.13755,-0.12541 0.0591,-0.53713 -0.17444,-0.91493 -0.53241,-0.86145 -6.14709,0.46827 -6.14709,1.45582 0,0.60274 5.59196,0.12428 6.32153,-0.54089 z m 11.13085,-2.54065 c 1.15575,-1.06747 0.004,-1.39667 -2.82778,-0.8083 -3.79104,0.78766 -4.34657,2.5826 -0.59246,1.91426 1.51447,-0.26962 3.05358,-0.7673 3.42024,-1.10596 z m 10.58334,-1.65821 c 3.29852,-0.73406 2.35016,-2.02791 -1.07143,-1.46174 -1.66965,0.27628 -3.28203,0.64817 -3.58308,0.82643 -0.96888,0.57368 0.26968,1.72303 1.50033,1.39226 0.65444,-0.17589 2.07382,-0.51652 3.15418,-0.75695 z m 11.78571,-1.82874 c 0.93586,-0.006 1.60714,-0.44981 1.60714,-1.06332 0,-0.99279 -2.24589,-0.98405 -5.53571,0.0215 -1.65236,0.50507 -0.96464,1.93218 0.71428,1.48224 0.88393,-0.23688 2.33036,-0.43508 3.21429,-0.44045 z m 13.57089,-2.44969 c 0.90301,-0.90301 -0.57872,-1.2497 -3.34419,-0.78248 -3.86445,0.6529 -3.85451,2.10927 0.0109,1.59081 1.60387,-0.21512 3.10387,-0.57887 3.33333,-0.80833 l 0,0 z m 9.6434,-0.87567 c 3.34937,-0.55361 3.50847,-1.68439 0.23699,-1.68439 -2.83612,0 -4.70128,0.59708 -4.70128,1.50499 0,0.74779 0.82499,0.78094 4.46429,0.1794 z m 11.875,-1.41653 c 2.81535,-0.56308 2.91404,-1.69643 0.1477,-1.69643 -2.51037,0 -4.34413,0.63529 -4.34413,1.50499 0,0.75162 1.1363,0.80346 4.19643,0.19144 z m 14.04722,-1.74395 c 0.25895,-0.419 0.29958,-0.93305 0.0903,-1.14235 -0.60195,-0.60195 -6.19109,0.52891 -6.19109,1.25265 0,0.91618 5.52818,0.81623 6.1008,-0.1103 z m 10.3862,-0.66677 c 1.14643,0 2.08443,-0.32143 2.08443,-0.71428 0,-0.87074 -6.19088,-0.96247 -6.72414,-0.0996 -0.55314,0.895 0.41746,1.63426 1.56668,1.19327 0.54373,-0.20865 1.92658,-0.37936 3.07303,-0.37936 z m -168.21429,-0.71428 c 0.79007,0 1.01301,-1.25758 1.01301,-5.71429 0,-4.60317 -0.20834,-5.71429 -1.07143,-5.71429 -0.66303,0 -1.07143,0.67212 -1.07143,1.7633 0,1.23085 -0.30668,1.64561 -1.01561,1.37357 -0.55859,-0.21435 -1.68359,-0.0322 -2.5,0.40469 -2.16042,1.15622 -2.0853,5.95654 0.11735,7.49934 0.88096,0.61705 2.03224,0.9567 2.55842,0.75479 0.52617,-0.20191 1.41253,-0.36711 1.96969,-0.36711 z m -15.41556,-0.71429 c 0,-0.39286 -0.32143,-0.71429 -0.71429,-0.71429 -1.03916,0 -0.8772,-4.80492 0.17857,-5.29761 0.71429,-0.33334 0.71429,-0.5 0,-0.83334 -0.49107,-0.22916 -0.89286,-1.03274 -0.89286,-1.78571 0,-1.89346 -1.33099,-1.71869 -2.08871,0.27425 -0.57649,1.51628 -0.49113,3.2862 0.35995,7.46384 0.32479,1.59426 3.15734,2.39527 3.15734,0.89286 z m 21.42857,0 c 0,-0.39286 -0.32143,-0.71429 -0.71429,-0.71429 -1.03916,0 -0.8772,-4.80492 0.17857,-5.29761 0.71429,-0.33334 0.71429,-0.5 0,-0.83334 -0.49107,-0.22916 -0.89285,-1.03274 -0.89285,-1.78571 0,-1.87948 -1.33292,-1.72507 -2.05534,0.23809 -0.54542,1.48219 -0.37875,6.10667 0.29606,8.21429 0.33825,1.05645 3.18785,1.21607 3.18785,0.17857 z m 175.71428,0 c 0,-0.39286 -1.44642,-0.71429 -3.21428,-0.71429 -1.76786,0 -3.21429,0.32143 -3.21429,0.71429 0,0.39286 1.44643,0.71429 3.21429,0.71429 1.76786,0 3.21428,-0.32143 3.21428,-0.71429 z m -192.14285,-2.09318 c 0,-0.83702 0.57251,-1.46859 1.45686,-1.60714 2.00856,-0.31469 2.11154,-1.60653 0.15028,-1.88507 -1.03283,-0.14669 -1.60714,-0.721 -1.60714,-1.60715 0,-0.75839 -0.32143,-1.37889 -0.71429,-1.37889 -0.39286,0 -0.71429,0.64286 -0.71429,1.42857 0,0.95238 -0.47619,1.42857 -1.42857,1.42857 -0.79365,0 -1.42857,0.4762 -1.42857,1.07143 0,0.59524 0.63492,1.07143 1.42857,1.07143 0.95238,0 1.42857,0.47619 1.42857,1.42857 0,0.78572 0.32143,1.42857 0.71429,1.42857 0.39286,0 0.71429,-0.6205 0.71429,-1.37889 z m 0.60769,-31.54812 c 1.99239,-0.69455 3.13961,-2.0796 1.71374,-2.069 -1.61133,0.012 -5.89286,1.5904 -5.89286,2.17245 0,0.89583 1.4129,0.86086 4.17912,-0.10345 z m 13.21161,-4.178 c 0.40057,-0.40058 0.57866,-0.87798 0.39574,-1.06089 -0.57901,-0.57901 -6.3579,1.16402 -6.3579,1.91768 0,0.88666 4.9267,0.17867 5.96216,-0.85679 z m 10.64498,-2.58136 c 2.21511,-0.52832 2.66264,-1.7422 0.6423,-1.7422 -2.186,0 -5.84889,1.51966 -5.40277,2.2415 0.22903,0.37056 0.95186,0.51523 1.6063,0.32148 0.65444,-0.19375 2.07382,-0.5631 3.15417,-0.82078 z m 13.39286,-4.00539 c 0,-0.70907 -1.1811,-0.75059 -4.19643,-0.14752 -1.22768,0.24553 -2.23214,0.8438 -2.23214,1.32948 0,0.67935 0.74144,0.71338 3.21428,0.14751 1.76786,-0.40454 3.21429,-1.00281 3.21429,-1.32947 z m 9.46429,-1.70889 c 2.02138,-0.48212 2.73174,-1.7422 0.98214,-1.7422 -2.63151,0 -5.44643,0.99395 -5.44643,1.92313 0,0.6465 0.46563,0.89195 1.25,0.65892 0.6875,-0.20425 2.13393,-0.58218 3.21429,-0.83985 z m 12.17207,-2.76818 c 2.97436,-0.66317 1.57556,-1.95905 -1.51349,-1.40213 -1.44258,0.26008 -2.86918,0.61359 -3.17023,0.78556 -0.97683,0.55802 0.27503,1.71018 1.50033,1.38085 0.65444,-0.1759 2.08696,-0.51982 3.18339,-0.76428 z"
       id="path28091"
       inkscape:connector-curvature="0" />
    <text
       xml:space="preserve"
       style="font-style:normal;font-variant:normal;font-weight:normal;font-stretch:normal;font-size:20px;line-height:125%;font-family:'Times New Roman';-inkscape-font-specification:'Times New Roman, ';letter-spacing:0px;word-spacing:0px;fill:#000000;fill-opacity:1;stroke:none;stroke-width:1px;stroke-linecap:butt;stroke-linejoin:miter;stroke-opacity:1;"
       x="68.571426"
       y="440.21936"
       id="text28159"
       sodipodi:linespacing="125%"><tspan
         sodipodi:role="line"
         id="tspan28161"
         x="68.571426"
         y="440.21936">n</tspan></text>
  </g>
</svg>
